<svg xmlns="http://www.w3.org/2000/svg" xmlns:xlink="http://www.w3.org/1999/xlink" viewBox="0 0 152 29.718">
  <defs>
    <clipPath id="clip-path">
      <rect id="Rectangle_1" data-name="Rectangle 1" width="152" height="29.718" fill="none"/>
    </clipPath>
  </defs>
  <g id="Group_2" data-name="Group 2" transform="translate(0 0)">
    <g id="Group_1" data-name="Group 1" transform="translate(0 0)" clip-path="url(#clip-path)">
      <path id="Path_1" data-name="Path 1" d="M152,6.206a3.943,3.943,0,1,1-3.944-3.944A3.943,3.943,0,0,1,152,6.206m-6.19,12.549a10.96,10.96,0,0,1-21.919,0,10.959,10.959,0,0,1-21.919.013,10.952,10.952,0,0,1-19.056,7.358,10.846,10.846,0,0,1-2.647-5.216L63.96,20.9l.268.651a5.972,5.972,0,0,0,4.16,3.091A8.863,8.863,0,0,0,70,24.79l.268-.007a6.675,6.675,0,0,0,3.222-.9l.522-.333a.988.988,0,0,1,1.122-.077l2.915,1.608a.94.94,0,0,1,.482.713.873.873,0,0,1-.285.76l-.773.7a.5.5,0,0,1-.085.058l-.031.018a11.416,11.416,0,0,1-7.068,2.382c-.13.007-.25.01-.38.01-.343,0-.669-.01-1-.032l-.6-.047a10.918,10.918,0,0,1-9.733-10.978,10.674,10.674,0,0,1,.766-3.873h0l-.076-.088a6.019,6.019,0,0,0-5.186-2.051A5.715,5.715,0,0,0,48.8,18.478L48.7,28.4a1.255,1.255,0,0,1-1.254,1.253H45.054a1.229,1.229,0,0,1-1.227-1.228v-9.46a10.955,10.955,0,0,1-21.909-.208,10.958,10.958,0,1,1,0-.007,10.955,10.955,0,0,1,21.909-.211v-9.2a1.255,1.255,0,0,1,1.254-1.254h2.394A1.228,1.228,0,0,1,48.7,9.315v.574a9.466,9.466,0,0,1,5.014-2.1,10.241,10.241,0,0,1,8.332,3.021,10.935,10.935,0,0,1,18.232,5.767A10.937,10.937,0,0,1,96.734,9.419l.283.174.015-8.177A1.417,1.417,0,0,1,98.447,0h2.133A1.417,1.417,0,0,1,102,1.415l-.022,17.31a10.959,10.959,0,0,1,21.918.028,10.96,10.96,0,0,1,21.919,0m-128.843,0a6.006,6.006,0,1,0-6,6.007,6.011,6.011,0,0,0,6-6.007m21.913,0a6,6,0,1,0-6,6.007,6.009,6.009,0,0,0,6-6.007m36.17-2.317a5.983,5.983,0,0,0-11.044-.013Zm21.982,2.317a6.014,6.014,0,0,0-6.009-6h-.089a6.119,6.119,0,0,0-5.91,5.913,6,6,0,1,0,12.008.091m21.9,0a6,6,0,1,0-6,6.007,6.009,6.009,0,0,0,6-6.007m21.919,0a6,6,0,1,0-6,6.007,6.009,6.009,0,0,0,6-6.007" transform="translate(0 0)" fill="#ed1d24"/>
    </g>
  </g>
</svg>
